<svg height="100" viewBox="0 0 100 100" width="100" xmlns="http://www.w3.org/2000/svg"><path d="m100 86.7836257v13.2163743h-13.2163743v-13.2163743zm-21.6959064 0v13.2163743h-13.2163743v-13.2163743zm-21.6959065 0v13.2163743h-13.2163742v-13.2163743zm-21.6959064 0v13.2163743h-13.2163743v-13.2163743zm-21.6959064 0v13.2163743h-13.2163743v-13.2163743zm43.3918128-86.7836257v13.2163743h-25.2631579c-4.7368421.1754386-9.1812865 2.1052631-12.5730994 5.4385965-3.3333333 3.2748538-5.3216374 7.7192982-5.5555555 12.4561403v47.1929825h-13.2163743v-47.0175439c0-4.2105263.81871345-8.3040936 2.45614035-12.1637427 1.57894737-3.74269 3.85964912-7.0760234 6.7251462-9.94152045 2.86549705-2.86549708 6.19883045-5.14619883 9.94152045-6.7251462 3.8596491-1.6374269 7.9532164-2.45614035 12.1637427-2.45614035zm43.3918129 65.0877193v13.2163743h-13.2163743v-13.2163743zm0-21.6959064v13.2163742h-13.2163743v-13.2163742zm0-21.6959065v13.2163743h-13.2163743v-13.2163743zm-21.6959064-21.6959064v13.2163743h-13.2163743v-13.2163743zm21.6959064 0v13.2163743h-13.2163743v-13.2163743z" fill="#46e3b7"/></svg>